<mxfile host="app.diagrams.net" modified="2024-05-04T15:51:32.906Z" agent="Mozilla/5.0 (X11; Linux x86_64; rv:124.0) Gecko/20100101 Firefox/124.0" version="24.3.1" etag="kxncIGuY2h6qSAitysjR" type="github">
  <diagram name="Page-1" id="uMdMqz7fFRse7EHPs3zF">
    <mxGraphModel>
      <root>
        <mxCell id="0" />
        <mxCell id="1" parent="0" />
      </root>
    </mxGraphModel>
  </diagram>
</mxfile>
